<?xml version="1.0" encoding="UTF-8"?>
<svg viewBox="0 0 640 480" xmlns="http://www.w3.org/2000/svg" xmlns:xlink="http://www.w3.org/1999/xlink">
 <defs>
  <linearGradient id="a">
   <stop stop-opacity=".67843" offset="0"/>
   <stop stop-opacity=".32941" offset=".57"/>
   <stop stop-opacity="0" offset="1"/>
  </linearGradient>
  <linearGradient id="g" x1=".32826" x2=".3367" y1=".16154" y2="1.3926">
   <stop stop-color="#fff" stop-opacity="0" offset="0"/>
   <stop stop-color="#fff" offset="1"/>
  </linearGradient>
  <linearGradient id="f" x1="1.887" x2=".70435" y1=".34091" y2=".41288">
   <stop stop-color="#1f1f1f" stop-opacity=".55372" offset="0"/>
   <stop stop-opacity="0" offset="1"/>
  </linearGradient>
  <linearGradient id="e" x1=".93773" x2=".35897" y1=".83121" y2=".09236">
   <stop stop-color="#4f4f4f" offset="0"/>
   <stop stop-color="#bebebe" offset=".27444"/>
   <stop stop-color="#fff" offset="1"/>
  </linearGradient>
  <linearGradient id="d" x1=".98876" x2=".52809" y1="4.0156" y2="-.07031" xlink:href="#a"/>
  <linearGradient id="c" x1=".99893" x2=".52919" y1="4.0726" y2="-.07944" xlink:href="#a"/>
  <linearGradient id="b" x1="1.0094" x2=".52949" y1="4.1349" y2="-.09017" xlink:href="#a"/>
  <radialGradient id="h" cx="3108.9" cy="1214.8" r="623.97" gradientUnits="userSpaceOnUse">
   <stop stop-color="#bacfff" offset="0"/>
   <stop stop-color="#027abb" offset="1"/>
  </radialGradient>
 </defs>
 <path d="m436.18 247.02c-5.6237 1.7864-8.668 5.4295-12.553 9.859-3.2227 3.6748-1.2068 22.218 4.7798 20.17 7.2414-2.3915 7.8496-24.278 7.7732-30.029" fill="#f4f2f2"/>
 <path d="m435.2 247.17c-0.258 3.8436-2.3852 20.829-7.4993 22.508-3.2195-2.3374-5.3658-5.5059-6.423-9.4864-1.3057 2.5985 3.2544 18.18 7.1299 16.855 6.8465-2.2609 7.8082-30.112 6.7924-29.876" fill="#e2e0e0"/>
 <path d="m177.15 219.77c0-77.802 64.956-142.76 142.76-142.76 77.786 0 142.75 64.975 142.75 142.76 0.01263 77.77-64.994 142.75-142.75 142.75-77.789 0-142.76-64.962-142.76-142.75m142.76-150.9c-82.136 0-150.91 68.771-150.91 150.9 0 82.136 68.777 150.86 150.91 150.86s150.85-68.726 150.85-150.86c0-82.123-68.714-150.9-150.85-150.9" fill="#027abb"/>
 <path d="m462.66 219.77c0 77.77-64.988 142.75-142.75 142.75-77.786 0-142.76-64.962-142.76-142.75 0-77.802 64.956-142.76 142.76-142.76 77.783 0 142.75 64.975 142.75 142.76" fill="url(#h)"/>
 <path d="m319.91 81.795c-73.022 0-134.95 59.377-137.86 132.37 11.235 1.9839 11.445-24.138 14.881-33.37 6.114-16.425 15.569-31.574 27.609-44.318 24.644-26.084 59.482-41.101 95.37-41.101 69.914 0 128.96 57.256 131.06 127.15 23.253-20.667-13.445-78.818-30.01-96.654-25.94-27.937-62.921-44.079-101.05-44.079" fill="#c1f0fe"/>
 <path d="m321.6 357.68c-2.2609 0.00638-2.2609 0.00638 0 0m-3.4041 0c2.277 0.00638 2.277 0.00638 0 0m139.59-141.02c-11.903 9.8207-8.0534 34.494-12.935 49.789-5.2702 16.53-13.878 31.949-25.141 45.149-24.39 28.596-60.533 45.595-98.112 46.082 75.697-0.92352 137.9-65.338 136.19-141.02m-268.44-3.0029c-9.4895 2.054-7.7955 1.8597-7.2541 12.938s2.4106 22.087 5.5855 32.72c5.5344 18.511 15.015 35.767 27.622 50.397 25.676 29.803 63.545 47.493 102.89 47.967-75.853-0.97128-136.18-68.599-128.85-144.02" fill="#c3ebfc"/>
 <path d="m419.08 187.19c0 7.7254 13.961 33.274 22.89 28.485 10.381-5.5664 21.836-13.098 16.712-24.307-9.6298-21.033-13.75-42.55-28.494-61.284-8.4355-10.719-33.255-35.764-48.368-36.271-4.1016-0.13693-6.6301 3.9933-8.6713 6.8338-8.8018 12.254-3.5601 8.6807 2.6654 16.645 4.1462 5.3021 2.3532 14.269-5.4039 11.862-3.3055-1.0222-6.7606-7.649-9.566-9.8908-28.803-22.966-3.3851 16.327-7.5916 22.339-2.7387 3.9168-19.896 11.155-12.458 16.938 4.6748 3.6207 10.993 4.404 16.594 5.4231-16.909 8.1362-28.246 16.632-29.819 35.296-2.1559 25.625 8.0789 30.058 31.889 29.026 37.755-1.6432-4.7543 84.107 37.93 80.072 10.311-0.97766 30.832-34.064 26.845-43.531-4.1333-9.7953-6.7064-12.282 3.7067-18.858 3.9296-2.4743 18.906-10.063 14.148-17.037-3.6779-5.3785-11.935-7.4993-16.492-12.321-6.2095-6.5631-7.8591-15.193-9.585-23.695-5.041-24.743-23.192-11.661-35.764-25.084 12.489 1.933 38.834 1.0318 38.834 19.358" fill="#65beef"/>
 <path d="m440 262.67c-5.818 1.8597-8.9611 5.6237-12.992 10.212-3.3309 3.7927-1.261 22.982 4.9517 20.88 7.4994-2.5093 8.1204-25.116 8.0408-31.093" fill="#65beef"/>
 <path d="m261.06 103.53c0.59863-2.194 0-5.0919 0-7.3878-14.349-4.0698-37.748 21.95-46.193 31.185-13.113 14.333-23.558 31.115-30.376 49.32-1.8278 4.8754-12.661 31.106-2.6398 33.659 7.2541 1.8533 24.437 2.7227 29.026 8.719 8.719 11.4 4.3531 15.623 4.6938 29.86 0.24521 9.7953 10.888 19.823 16.658 27.068 5.907 7.4133-3.2705 42.2-4.2322 52.276 0.035-0.62732 0.35025-1.0318 0.94257-1.2069 4.2257 4.4774 7.6299 9.3368 13.451 13.273 10.235-21.743 26.832-34.382 40.933-53.763 7.4548-10.244 4.1621-22.383 10.302-32.994 3.2896-5.6779-0.54126-5.8339-5.993-10.031-19.333-14.897-36.22-21.135-59.641-27.354-9.0151-2.3883-18.594-3.2832-21.301-13.738-2.3596-9.1234-6.8721-8.0406-16.034-10.716 3.3182-7.7318 24.507-20.667 25.447-7.1968 0.92981 13.285 11.512 23.689 25.233 23.673 8.3496-0.00635-11.509-14.037-14.559-14.642-7.3941-1.4743-9.2347-12.671-7.9929-18.664 1.2832-6.181 14.559-15.597 19.014-20.524 7.9485-8.789 16.734 1.0796 25.374-6.2765-11.069-1.0858-23.396-13.282-5.7892-10.881 4.2384 0.57323 1.8947 8.5375 9.1202 8.3401 18.345-0.51273-12.015-12.614-8.4515-7.9579-2.3023-3.0061 11.719-5.5473 5.5505-13.875-4.42-5.958-18.992-18.409-2.5411-20.167" fill="#65beef"/>
 <path d="m277.8 83.181c-9.929 2.9711 0.4108 29.376 10.509 27.128 5.1269-1.14 8.5916-12.435 13.206-15.508 1.3151-0.87891 27.185-13.725 27.431-11.973 0.9585 6.9166-7.1777 10.754 0.84393 15.938 7.8941 5.1047 14.378 6.872 11.515-5.8148-6.3529-28.44-43.452-15.683-63.504-9.7698" fill="#65beef"/>
 <path d="m231.54 268.74c1.1974 0 1.5572 50.212-5.1684 50.212 0.42673-0.00324 1.9361-50.212 5.1684-50.212" fill="#fff"/>
 <path d="m319.88 349.97c-72.513 0-135.42-56.262-143.22-128.42 0.94574 77.372 65.847 141.46 143.22 141.46 77.382 0 142.27-64.093 143.23-141.46-7.8018 72.159-70.713 128.42-143.23 128.42" fill="#0b6a9e"/>
 <path d="m419.08 178.12c0 8.1713 13.941 33.306 23.281 28.249 7.391-3.9996 24.358-14.486 21.524-24.033-7.2415-24.288-19.699-47.563-37.194-66.026-8.652-9.1202-31.363-31.112-44.872-31.574-4.1079-0.14008-6.6301 3.9901-8.6713 6.8401-8.8018 12.254-3.5601 8.6776 2.6654 16.642 4.1462 5.302 2.3532 14.266-5.4039 11.859-3.3055-1.0222-6.7606-7.6458-9.566-9.8877-28.803-22.96-3.3851 16.32-7.5916 22.339-2.7387 3.9168-19.896 11.155-12.458 16.935 4.6748 3.6239 10.993 4.4168 16.594 5.4231-16.909 8.1267-28.246 16.629-29.819 35.293-2.1559 25.631 8.0789 30.055 31.889 29.026 37.758-1.6304-4.7607 84.094 37.93 80.072 10.311-0.97122 30.832-34.057 26.845-43.531-4.1333-9.7826-6.7064-12.276 3.7067-18.852 3.9296-2.4743 18.906-10.069 14.148-17.043-3.6779-5.3785-11.935-7.5057-16.492-12.314-6.2095-6.5695-7.8591-15.193-9.585-23.695-5.041-24.753-23.199-11.649-35.764-25.084 12.496 1.9265 38.834 1.0317 38.834 19.361" fill="#fff"/>
 <path d="m442.42 256.62c-5.8179 1.8534-8.9642 5.6237-12.996 10.206-3.3245 3.7927-1.2737 22.976 4.9518 20.88 7.4962-2.4998 8.1204-25.109 8.0439-31.086" fill="#f4f2f2"/>
 <path d="m441.4 256.78c-0.24518 3.9933-2.4616 21.546-7.7541 23.297-3.331-2.4201-5.5441-5.6905-6.6523-9.8144-1.3533 2.694 3.3628 18.801 7.3815 17.447 7.0153-2.3405 8.1777-31.191 7.0249-30.93" fill="#e2e0e0"/>
 <path d="m257.43 95.469c0.59863-2.1972 0-5.0919 0-7.3879-14.368-4.057-37.742 21.934-46.2 31.185-14.776 16.158-26.154 35.42-32.784 56.304-12.356 38.91 17.225 20.256 34.268 42.56 5.6269 7.3688-3.5634 22.428 2.971 32.36 4.8372 7.3592 13.986 13.938 13.126 22.988-1.226 12.887-2.4552 25.768-3.6717 38.656-0.24509 2.5125-0.92981 5.4931-0.76733 8.0342-2.0763 1.9775-2.8151 4.5283-2.2164 7.6617 5.0282 4.5474 10.375 8.7508 15.995 12.543 4.2131-8.9737 3.5061-18.26 9.6138-27.049 9.0215-12.992 22.629-22.068 31.93-34.854 7.4515-10.244 4.1684-22.383 10.302-33 3.2768-5.6778-0.54773-5.8338-5.9994-10.031-19.333-14.897-36.213-21.129-59.632-27.341-9.0087-2.3947-18.594-3.2895-21.304-13.738-2.3596-9.1298-6.872-8.0471-16.037-10.716 3.3182-7.7382 24.523-20.673 25.453-7.1968 0.9171 13.279 11.521 23.667 25.233 23.667 8.3241 0-11.493-14.031-14.562-14.636-7.4005-1.4744-9.2347-12.674-7.9928-18.67 1.2865-6.1746 14.556-15.6 19.014-20.517 7.942-8.7826 16.728 1.0636 25.367-6.2797-11.069-1.0859-23.39-13.279-5.7829-10.881 4.2417 0.5764 1.8883 8.5406 9.1202 8.3369 18.345-0.51904-12.015-12.601-8.4579-7.9579-2.296-2.9997 11.725-5.5472 5.5568-13.875-4.42-5.9612-18.995-18.409-2.5444-20.167" fill="#fff"/>
 <path d="m277.8 77.732c-9.9354 3.0125 0.41721 29.373 10.509 27.134 5.1269-1.1368 8.5979-12.445 13.206-15.514 1.3151-0.87575 27.185-13.715 27.431-11.967 0.9585 6.9198-7.1777 10.747 0.84393 15.935 7.8941 5.1046 14.378 6.8688 11.515-5.8084-6.3529-28.44-43.445-15.683-63.504-9.7794" fill="#fff"/>
 <path d="m341.31 87.511c-0.94574-4.3117-2.5985-8.3305-4.9582-12.056 1.9775 5.404 5.4294 19.008-4.2767 13.432-7.6235-4.3786 4.4328-17.247-5.9708-14.992-15.629 3.3882-25.163 9.3686-34.29 21.839-7.5886 10.362-14.349-13.556-14.808-17.626-8.6617 4.2321 1.5794 28.918 11.311 26.756 5.127-1.1369 8.598-12.445 13.206-15.515 1.3153-0.87569 27.186-13.715 27.431-11.967 0.9585 6.9198-7.1777 10.747 0.84381 15.935 7.891 5.1046 14.375 6.872 11.512-5.8052" fill="#e2e0e0"/>
 <path d="m276.02 273.96c-0.82477-0.04456-1.5444-15.206-3.1972-17.285-6.1682-7.7382-17.425-0.03183-23.339 3.8563-21.858 14.381-30.074-10.655-37.057-29.039-2.0508 21.176 17.639 28.854 15.706 49.171-1.105 11.582-2.21 23.173-3.3086 34.761-0.31845 3.3532-0.39485 3.7576-1.8247 6.4421-4.3786 8.2286 9.7126 14.833 15.155 18.511 7.2478-15.438 7.8528-26.619 21.135-40.073 12.566-12.738 24.733-22.625 26.552-41.13-4.713-0.83112-4.4805 15.085-9.8208 14.785m-100.41-74.566c2.6336 2.2769 3.8723 4.334 8.3051 4.3148-3.1272-5.6046-8.3974-7.4197-9.2349-13.734-0.23558 3.1939 0.07326 6.337 0.92981 9.4196" fill="#f4f2f2"/>
 <path d="m422.53 236.5c-9.4959 22.364-8.9927-7.5885-23.874 0.24204-7.6903 3.0157-12.247 31.322-15.206 30.625-3.3469-0.78333-2.5094-16.451-6.6109-15.257-7.6076 2.2068 2.6781 44.334 11.617 46.41 8.5948 1.9902 17.581 0.41708 21.89-8.2032 3.2099-6.4134 14.499-23.845 14.773-30.545 0.24829-6.1269-10.098-14.018-2.7259-19.224 4.2671-3.0092 25.402-12.731 19.581-20.804-6.2574 5.8848-15.346 8.5661-19.444 16.756m40.299-44.999c-0.09552 0.51588-0.02863 0.16243 0 0" fill="#f4f2f2"/>
 <path d="m244.74 131.56c10.693-9.6265 6.6778 2.5412 12.072 3.2449 0.96491 0.12741 19.466 5.8816 8.4228-5.3721-0.01282 9.2763-11.824-1.7674-12.833-3.6462-3.7512-6.9612-16.482 2.0094-7.6616 5.7734m-23.549 60.444c-2.4711-0.82156-4.4583-2.2896-5.9582-4.3977 1.6591 9.7093 32.226 15.101 21.96 5.0187 6.9802 7.9992-14.607-0.60188-16.002-0.62099m-2.331-30.414c9.8335-2.675 11.416-15.457 20.39-19.294 7.0725-3.022 12.989 3.9168 20.285-2.2864-14.473-3.8882-23.227-5.8402-32.828 7.2096-7.1873 9.7603-21.705 14.269-11.047 29.239-0.96814-3.5093-2.3279-13.362 3.2004-14.868m-14.683 9.8048c2.4361-0.03824 4.8467 0.1879 7.2318 0.67828-6.9356-11.837-30.106-2.1018-24.386 11.575 2.5412-6.5758 10.162-11.926 17.155-12.254m84.145 67.418c1.261 4.4455-4.3722 8.0184-5.0282 12.515-1.6623 11.451-1.589 17.588-9.8463 26.826-9.0501 10.133-20.352 18.552-28.144 29.768-6.1077 8.789-5.4072 18.068-9.6266 27.048-4.7034-3.2162-9.2029-6.7-13.489-10.448-1.1814 7.5439 15.015 21.75 16.67 13.441 3.124-15.699 9.0088-26.077 20.431-37.653 9.5087-9.6392 26.313-21.95 26.313-37.086 0-9.5946 9.7762-18.769 2.7195-24.412m-61.523 24.514c-5.1365-6.4071-10.318-12.919-14.648-19.903 3.6207 9.324 10.974 17.47 17.113 25.307-0.81836-1.7992-1.6431-3.6016-2.4647-5.4039m-50.763-66.421c-1.277 8.0056 12.4 7.9483 17.97 9.3781 11.375 2.9042 13.043 4.385 20.355 13.597 2.3024-15.05-30.045-20.237-38.324-22.976m78.932-73.783c2.1367-1.4234 4.2894-1.4839 6.4421-0.18149 1.261-2.7959 0.67822-5.3594-1.7515-7.6776 0.02225 2.8309-9.6997 6.2319-7.7064 8.8336l3.0157-0.97443m2.4647-27.65c0.46814-2.3024 0-5.025 0-7.3879-5.3084 2.538-14.763 5.439-8.3113 13.355 0.09235-5.4867 5.802-3.8181 8.3113-5.9676" fill="#e2e0e0"/>
 <path d="m349.9 135.98c5.6619-3.8818 13.126-9.0438 8.2826-16.671-0.47125-0.74197-12.508-15.072-12.677-11.897-0.57315 11.107 16.562 18.199 4.3945 28.568m0.5986 17.648c2.2896 0.62729 4.5984 1.1814 6.923 1.6463-2.9456-4.006-17.954-9.0119-12.088-15.782-9.6233 6.7255-5.4326 12.324 5.1651 14.136m27.252-40.48c0.00324 1.2451 0.00324 2.4966 0.00952 3.7385 8.426 0.48717 4.3435-12.037-0.24194-14.566-7.7064-4.248-2.9011-9.6201 1.7132-15.473-0.54462-0.15919-1.0095-0.43304-1.3916-0.80884-17.537 17.537-2.1081 12.706-0.08911 27.109m45.7 150.45c0.54462-1.3565 1.0891-2.7131 1.6368-4.0665-4.4105 7.0122-4.9582 8.3623-1.6368 4.0665m-33.669 26.698c-6.3879-1.917-10.381-30.787-10.674-36.554-0.8757-17.422 4.299-24.66-6.7733-38.337-7.2987-8.9865-27.281 4.5027-36.882-7.3751-4.7353-5.8721-0.90118-29.176-5.1396-31.446-2.0381-1.0955-2.6431 30.618-1.2834 34.213 5.9645 15.766 31.383 5.4104 43.397 14.623 7.4834 5.7287 3.1621 20.177 2.2386 27.708-1.331 10.897 3.0158 22.31 5.2384 32.933 3.9009 18.642 24.88 16.667 32.16 0.60187-5.6556 6.6936-14.773 5.8912-22.281 3.6334m72.299-101.84c-5.2925 4.2416-10.302 9.1998-16.342 12.464-6.8975 3.7321-12.719-7.4643-16.995-12.528-8.4675-10.044-2.3661-25.396-17.578-29.536-11.152-3.0348-20.565 1.519-30.924-0.09232 10.811 1.554 24.705 0.99033 33.586 8.0343 8.1138 6.4484 4.9708 20.189 12.601 28.367 7.2064 7.719 9.0342 16.151 19.435 9.0374 4.353-2.9774 17.228-11.101 16.218-15.747m-38.426 51.25c5.579-3.7767 18.084-8.8145 19.03-16.75-4.3881 4.2289-20.094 9.4227-19.03 16.75" fill="#e2e0e0"/>
 <path d="m416.96 227.57c-9.1871 21.606-8.6903-7.3464-23.068 0.23563-7.4165 2.9106-11.852 30.265-14.693 29.593-3.2258-0.7706-2.4297-15.897-6.3816-14.753-7.3624 2.1399 2.5858 42.846 11.216 44.843 24.055 5.5664 21.957-20.985 33.809-33.749 5.7989-6.2383-5.0122-12.528-3.4741-19.001 1.5858-6.6491 28.316-13.789 21.374-23.361-6.0536 5.6874-14.827 8.2764-18.782 16.193m38.939-43.474c-0.11145 0.52856-0.02863 0.14966 0 0" fill="#f4f2f2"/>
 <path d="m223.19 94.798-3.1726 0.1568s1.0865 10.277 11.195 23.844 20.726 25.394 64.436 37.964l2.2912-2.3535c-34.38-9.6308-55.191-24.731-64.525-37.256s-10.225-22.355-10.225-22.355zm128.61 27.61c-10.864 0.14538-20.888 3.6322-29.883 9.3335-11.992 7.6018-22.198 19.08-30.851 32.316-7.8732 12.043-14.39 25.654-19.834 39.14-15.096-4.4591-30.284-6.6815-39.843-4.1566-20.822 5.8364-54.036 100.05-62.937 116.48-3.0701 6.5439-3.3985 15.728-1.3228 24.864 2.6755 14.174 11.443 28.599 26.181 33.101 25.264 9.301 60.255-1.99 71.4-19.295 11.003-18.112 58.842-104.16 54.212-121.11-0.09473-0.28563-0.49326-0.5751-0.61789-0.86195-0.04282-0.25838 0.15192-0.78796 0.08832-1.0203-2.9883-9.0804-21.282-19.39-41.165-26.12 4.759-13.802 10.624-27.592 18.07-38.983 8.3586-12.784 17.845-25.176 28.737-32.079 18.021-14.113 52.669-8.4599 45.132-9.7268-3.7918-0.72826-13.743-1.9303-17.365-1.8823zm24.506 10.197c-0.41147 0.01299-0.37769 0.21681 0.35184 0.62703 2.9208 1.6447 3.8152 3.0649 3.967 4.3928s-0.53479 3.0882-2.4677 5.1769-5.0588 4.3929-8.9921 6.5101c-15.729 8.4664-45.984 13.481-65.23 7.0592l-1.5863 2.2743c22.229 7.4175 51.36 2.9 68.844-6.5101 4.3708-2.3522 12.61-8.5144 11.9-14.196-0.53226-3.614-5.5534-5.3743-6.7866-5.334z" fill="url(#b)" fill-rule="evenodd"/>
 <path d="m219.6 92.462c-5.4638 4.4804 1.0411 12.255 3.1207 17.492 10.854 22.055 33.766 37.642 59.215 44.682 13.976 1.1722 7.8965 8.7105 2.556 16.015-6.4789 9.2219-10.083 19.674-15 29.583-14.536-2.4418-32.265-9.3037-45.309 0.23496-22.238 24.627-31.85 55.636-45.563 84.323-6.6607 17.418-18.592 35.017-14.36 53.97 2.5444 17.185 14.449 35.466 35.061 38.791 29.582 6.5386 64.301-7.3773 74.35-33.859 18.305-33.676 37.875-67.386 48.005-103.85 2.1718-13.111-10.445-21.719-21.711-27.536-4.8823-4.8394-18.77-4.8459-18.171-11.034 5.7468-13.794 11.094-27.931 20.93-39.945 23.9 6.0025 50.543 3.1259 71.781-8.286 7.9367-4.0242 16.267-15.484 6.4945-21.519-10.581-5.63-7.1176 1.8291-4.4954 8.0004-14.743 14.786-39.291 17.697-60.32 16.242-14.111 1.2008-4.2955-7.5603 0.90735-12.432 11.922-12.604 30.67-16.963 48.571-16.517 12.139 0.65948 2.9584-8.2509-4.7174-6.1207-24.901-3.2739-48.385 10.54-61.555 28.543-5.4859 4.6278-15.036-4.1994-22.141-4.9316-23.05-10.048-46.328-25.859-51.038-49.728-1.5188-2.285-3.8594-2.8352-6.6114-2.1179v1.4e-4z" fill="url(#c)" fill-rule="evenodd"/>
 <path d="m223.04 89.874c-11.617 0.09763-8.4274 13.426-3.7036 19.078 10.852 22.4 33.167 39.014 58.7 47.143 10.664 1.0372 8.8363 8.3275 3.6542 14.139-5.2976 7.9562-9.2232 16.332-12.901 24.901-7.1007 3.5906-15.946-2.2808-23.958-1.6668-11.469-1.3202-24.111 2.9935-28.526 13.232-23.522 31.097-34.813 67.777-51.09 102.01-6.5283 18.335-5.482 39.92 7.8874 55.603 12.681 16.903 38.848 20.053 59.482 14.999 21.82-4.9095 39.062-20.36 46.156-39.197 17.201-33.512 37.538-66.66 45.568-102.97-0.28812-15.36-17.251-24.771-30.963-31.002-9.7801-1.0995-7.9471-9.9047-3.9047-15.282 3.6555-9.4712 8.848-18.23 14.784-26.712 23.609 4.5876 49.173 2.3185 70.231-8.5819 10.319-3.6062 18.772-18.026 8.8726-25.395-6.6334-2.0549-9.9254-3.4647-11.67-9.6334-16.333-6.2518-35.545-1.3643-50.257 6.2622-10.333 4.8654-16.393 14.312-25.198 20.407-17.844-2.739-33.555-12.922-47.158-23.077-10.671-8.456-16.515-20.122-21.279-31.708-0.83206-1.2852-3.1843-2.5652-4.7265-2.5523zm150.03 38.276c-2.2054 5.7442 1.4864 13.433-7.6966 15.574-14.908 9.4504-34.434 10.35-52.156 9.0557 9.6632-15.418 29.575-23.125 48.847-23.491 3.6698-0.37126 7.3344-0.79834 11.005-1.1384z" fill="url(#d)" fill-rule="evenodd"/>
 <path d="m228.32 198.96c23.538-5.9363 81.507 14.655 87.043 30.714 4.6291 16.181-43.198 98.283-54.199 115.58-11.144 16.524-46.102 27.349-71.366 18.467-23.58-6.8775-31.988-38.081-24.367-53.592 8.9013-15.683 42.067-105.59 62.889-111.17z" fill="#fff" fill-rule="evenodd"/>
 <path d="m224.4 102.31c10.109 15.247 24.48 32.521 68.191 46.648l2.2548-2.5949c-34.38-10.824-57.626-31.35-66.959-45.428l-3.4868 1.3747zm124.36 8.0938c-10.864 0.16356-20.914 4.0592-29.909 10.467-11.993 8.543-22.212 21.448-30.866 36.323-17.307 29.752-29.152 67.878-33.75 94.805l7.3318 4.511c4.4746-26.214 13.895-68.272 30.611-97.009 8.3573-14.368 17.891-28.338 28.782-36.098 18.021-15.859 55.579-8.8143 48.042-10.238-3.7919-0.8178-8.7066-3.7191-20.243-2.7598zm19.53 3.083c3.2077 1.145 2.1016 1.6966 5.7377 5.2263 3.6348 3.5296 3.3349 7.3046 3.4868 8.7974s-0.51407 3.4478-2.4482 5.7961-5.0432 4.9082-8.9753 7.2864c-15.731 9.5153-45.986 15.145-65.231 7.929l-1.6085 2.6106c22.23 8.3366 51.381 3.244 68.864-7.3318 4.3708-2.643 12.611-9.5672 11.902-15.953-1.2112-9.0363-5.5196-13.954-11.729-14.361z" fill="#e5e5e5" fill-rule="evenodd"/>
 <path d="m228.76 198.35c23.538-6.0694 81.508 14.982 87.043 31.401 4.63 16.543-43.197 100.48-54.199 118.16-11.145 16.894-46.102 27.962-71.366 18.881-23.58-7.0315-31.989-38.933-24.368-54.792 8.9016-16.034 42.067-107.96 62.889-113.65z" fill="url(#e)" fill-rule="evenodd"/>
 <path d="m228.3 196.31c23.538-5.7753 81.508 14.256 87.043 29.879 4.6292 15.742-43.198 95.614-54.199 112.44-11.144 16.076-46.102 26.606-71.366 17.966-23.58-6.6905-31.988-37.047-24.367-52.137 8.9013-15.257 42.067-102.72 62.889-108.15z" fill="url(#f)" fill-rule="evenodd"/>
 <path d="m277.62 206.37c-11.396 14.758-19.076 37.53-19.458 38.536-14.182-5.5132-35.595-11.556-53.302-14.481l-0.19598 1.0411c43.089 7.1163 83.47 25.746 97.837 41.284l0.85284-0.68411c-8.5352-9.2323-24.192-18.858-44.183-26.751 0.34268-0.90477 8.0483-23.697 19.35-38.334l-0.90091-0.6127z" fill-opacity=".5865" fill-rule="evenodd"/>
 <path d="m226.6 264.09c-18.083-5.8857-54.868 38.902-59.687 58.039-5.2574 19.193 24.076 60.281 78.924 30.658 26.766-14.729 42.802-53.716 33.407-71.454-9.3959-17.736-44.221-14.222-52.644-17.243z" fill="url(#g)" fill-rule="evenodd"/>
</svg>
